<?xml version="1.0" encoding="UTF-8"?>
<svg id="Capa_2" data-name="Capa 2" xmlns="http://www.w3.org/2000/svg" viewBox="0 0 313.08 216.62">
  <g id="Capa_1-2" data-name="Capa 1">
    <g>
      <circle cx="225.73" cy="37.86" r="37.09"/>
      <circle cx="142.35" cy="37.86" r="37.09"/>
      <circle cx="58.91" cy="37.85" r="37.09"/>
      <circle cx="225.73" cy="121.23" r="37.09"/>
      <circle cx="142.36" cy="121.23" r="37.09"/>
      <path d="M101.03,216.43l-6.37-10.34h-5.92s-.02,10.29-.02,10.29h-5.95s0-30.71,0-30.71l13.74.03c3.72,0,6.71,2.23,8.4,5.39,2.59,5,1.01,11.14-4.24,13.79l6.9,11.42-6.54.14ZM99.63,198.21c1.22-2.96-.01-6.17-2.92-7.25h-7.97s0,9.85,0,9.85l7.78-.04c1.47,0,2.54-1.24,3.1-2.56Z"/>
      <path d="M313.08,20.24c0,11.18-9.06,20.24-20.24,20.24s-20.24-9.06-20.24-20.24S281.66,0,292.84,0s20.24,9.06,20.24,20.24ZM309.59,20.22c0-9.26-7.51-16.77-16.77-16.77s-16.77,7.51-16.77,16.77,7.51,16.77,16.77,16.77,16.77-7.51,16.77-16.77Z"/>
      <path d="M35.06,210.55c3.67,1.73,9.15.22,10.82-3.96l4.96,2.85c-1.75,4.32-6.59,6.52-10.9,7.06s-8-.74-11.1-3.53c-5.5-4.95-7.16-13.09-3.58-19.73,2.48-4.6,6.97-7.49,12.21-7.73l2.4.04c4.44.07,8.42,2.6,10.53,6.64l-4.58,3.19c-2.12-4.73-8.43-5.77-12.14-3.25-2.89,1.97-4.24,5.35-4.23,8.89,0,4.01,1.92,7.79,5.62,9.54Z"/>
      <path d="M239.55,205.97c1.68,3.8,5.44,5.85,9.4,5.15,2.66-.47,4.77-1.96,5.97-4.52l4.91,2.82c-1.65,4.15-6.14,6.38-10.58,7.05-8.6,1.3-15.8-5.63-16.81-14.02s5.72-16.86,13.92-16.92h2.18c4.58-.04,8.66,2.5,10.88,6.67l-4.66,3.22c-1.74-4.77-8.55-5.74-11.98-3.34-4.32,3.03-5.45,8.87-3.23,13.9Z"/>
      <polygon points="152.28 216.26 146.36 216.37 146.36 190.96 136.58 190.94 136.58 185.65 162.03 185.65 162.05 190.95 152.29 190.95 152.28 216.26"/>
      <rect x="83.44" y="84.14" width="2.97" height="74.04"/>
      <rect x="69.32" y="84.14" width="2.98" height="74.03"/>
      <rect x="271.11" y="83.95" width="2.9" height="74"/>
      <rect x="15.21" y="119.68" width="74.03" height="2.93" transform="translate(-68.96 173.29) rotate(-89.96)"/>
      <rect x="27.7" y="84.14" width="2.82" height="74.03"/>
      <rect x="0" y="84.14" width="2.81" height="74.03"/>
      <rect x="93.2" y="84.14" width="2.8" height="74.03"/>
      <rect x="193.78" y="185.65" width="6.03" height="30.72"/>
      <path d="M297.03,30.26l-4.27-7.1h-3.3s-.02,7-.02,7l-3.42-.03V10.29s8.46.04,8.46.04c3.39.01,5.76,2.76,5.86,6,.08,2.9-1.43,5.25-4.17,6.23l4.68,7.65-3.81.06ZM296.95,16.32c-.09-1.69-1.28-2.92-2.96-2.97l-4.53-.15-.02,7.09c1.88.13,3.9.18,5.73-.53,1.33-.52,1.85-2.01,1.78-3.43Z"/>
    </g>
  </g>
</svg>