<?xml version="1.0" encoding="UTF-8"?>
<svg id="Capa_2" data-name="Capa 2" xmlns="http://www.w3.org/2000/svg" viewBox="0 0 718.02 190.66">
  <g id="Capa_1-2" data-name="Capa 1">
    <g>
      <g>
        <g>
          <polygon points="4.76 3.59 4.76 44.47 9.71 44.47 9.71 26.07 28.17 26.07 28.17 21.43 9.71 21.43 9.71 8.24 33.37 8.24 33.37 3.59 4.76 3.59"/>
          <path d="M74.81,28.49h14.92l-7.49-20.13-7.43,20.13ZM101.13,44.47h-5.26l-4.34-11.33h-18.51l-4.34,11.33h-5.2L79.39,3.59h5.88l15.85,40.87h0Z"/>
          <path d="M116.68,28.49h14.92l-7.49-20.13-7.43,20.13ZM143,44.47h-5.26l-4.34-11.33h-18.51l-4.34,11.33h-5.2L121.27,3.59h5.88l15.85,40.87h0Z"/>
          <path d="M161.81,39.82c4.66,0,8.31-1.39,10.93-4.18,2.62-2.79,3.93-6.66,3.93-11.61s-1.31-8.83-3.93-11.61c-2.62-2.79-6.26-4.18-10.93-4.18h-8.73v31.58h8.73ZM161.32,3.59c6.4,0,11.42,1.77,15.08,5.29s5.48,8.58,5.48,15.14-1.83,11.61-5.48,15.14c-3.66,3.53-8.68,5.29-15.08,5.29h-13.19V3.59h13.19Z"/>
          <path d="M45.78,13.44v3.79h-9.3v3.96h9.49v-3.79h8.48c-.22,3.02-.48,6.74-.48,7.07v1.19l-11.27,2.22c-2.77.54-4.92,1.56-6.47,3.07-1.55,1.51-2.32,3.42-2.32,5.73,0,1.86.47,3.42,1.39,4.67.93,1.26,2.18,2.2,3.75,2.82s3.26.93,5.08.93c1.44,0,2.91-.24,4.4-.71,1.49-.47,2.83-1.22,4.02-2.23.58-.48,1.48-1.67,1.48-1.67,0,0,.08,0,.22-.03l.49,3.94h3.88l.05-30.96h-12.9,0ZM53.97,33.01c0,1.32-.25,2.47-.74,3.44-.5.97-1.18,1.78-2.04,2.42-.87.64-1.85,1.12-2.94,1.42-1.09.31-2.24.47-3.44.47-1.86,0-3.29-.4-4.31-1.21-1.01-.8-1.52-1.85-1.52-3.13s.5-2.35,1.49-3.1c.99-.74,2.5-1.32,4.52-1.74l8.98-1.84v3.26h0Z"/>
        </g>
        <g>
          <path d="M219.66,12.99h-8.11v15.26c0,3.99-1.27,10.35-7.14,10.35-5.21,0-5.27-5.15-5.27-8.96V12.99h-8.11v19.67c0,7.03,3.2,12.24,10.59,12.24,4.24,0,7.75-1.94,10.23-4.97h.12v4.24h7.69V12.98h0Z"/>
          <path d="M231.11,28.48c0-4.17,1.45-9.93,6.71-9.93s7.27,5.57,7.27,9.93-1.76,10.11-7.14,10.11-6.84-5.81-6.84-10.11M245.39,44.17h7.87l-.03-44.17h-8.11l.03,16.62h-.12c-2.42-2.96-5.27-4.36-9.32-4.36-9.56,0-13.07,7.63-13.07,16.22s3.51,16.41,13.07,16.41c3.81,0,7.14-1.21,9.56-4.24h.12v3.51h0Z"/>
          <path d="M257.03,56.87h8.11v-16.28h.12c2.85,3.45,5.69,4.3,9.14,4.3,9.75,0,13.25-7.87,13.25-16.41s-3.51-16.22-13.07-16.22c-4.78,0-7.87,2.12-9.68,5.14h-.12v-4.42h-7.75v43.89h0ZM272.46,18.56c5.27,0,6.72,5.75,6.72,9.93s-1.51,10.11-6.83,10.11-7.15-5.69-7.15-10.11,2.06-9.93,7.26-9.93"/>
        </g>
      </g>
      <path d="M33.28,75.7H9.62v13.19h18.46v4.65H9.62v18.4h-4.96v-40.88h28.62v4.64Z"/>
      <path d="M54.53,91.93c0-2.31-.62-4.1-1.86-5.36-1.24-1.26-2.99-1.89-5.27-1.89-2.15,0-3.96.47-5.45,1.39-1.49.93-2.58,2.43-3.28,4.49l-4.02-2.48c.83-2.31,2.35-4.18,4.58-5.61s5-2.14,8.3-2.14c2.23,0,4.25.38,6.07,1.15,1.82.77,3.25,1.92,4.31,3.47s1.58,3.54,1.58,5.98v14.99c0,1.49.78,2.23,2.35,2.23.78,0,1.55-.1,2.29-.31l-.25,3.9c-.83.41-1.9.62-3.22.62-1.2,0-2.27-.23-3.22-.68s-1.69-1.15-2.23-2.07c-.54-.93-.8-2.1-.8-3.5v-.62l1.24.18c-.5,1.61-1.34,2.92-2.54,3.93s-2.54,1.75-4.02,2.23c-1.49.47-2.95.71-4.4.71-1.82,0-3.51-.31-5.08-.93-1.57-.62-2.82-1.56-3.75-2.82-.93-1.26-1.39-2.82-1.39-4.68,0-2.31.77-4.22,2.32-5.73s3.71-2.53,6.47-3.07l12.27-2.42v4.09l-9.97,2.04c-2.02.41-3.53.99-4.52,1.74-.99.74-1.49,1.78-1.49,3.1s.5,2.32,1.52,3.13,2.45,1.21,4.31,1.21c1.2,0,2.34-.15,3.44-.47,1.09-.31,2.07-.78,2.94-1.42.87-.64,1.55-1.45,2.04-2.42s.74-2.12.74-3.44v-8.55h-.01Z"/>
      <path d="M82.41,80.34c2.15,0,4.04.33,5.67.99,1.63.66,3.04,1.61,4.24,2.85,1.2,1.24,2.17,2.7,2.91,4.4l-4.71,2.23c-.66-1.98-1.66-3.5-3-4.55-1.34-1.05-3.09-1.58-5.23-1.58s-3.84.47-5.33,1.39-2.62,2.27-3.41,4.02c-.78,1.75-1.18,3.87-1.18,6.35s.39,4.54,1.18,6.32c.78,1.78,1.92,3.13,3.41,4.06s3.26,1.39,5.33,1.39c1.61,0,3-.25,4.18-.74,1.18-.5,2.15-1.22,2.91-2.17.77-.95,1.29-2.1,1.58-3.47l4.58,1.61c-.7,1.9-1.66,3.53-2.88,4.89-1.22,1.36-2.69,2.4-4.4,3.13-1.72.72-3.67,1.09-5.85,1.09-2.89,0-5.47-.64-7.74-1.92s-4.05-3.13-5.33-5.54-1.92-5.3-1.92-8.64.64-6.23,1.92-8.64,3.05-4.26,5.33-5.54c2.27-1.28,4.85-1.92,7.74-1.92h0Z"/>
      <path d="M113.56,112.56c-1.98,0-3.85-.37-5.61-1.12s-3.18-1.95-4.27-3.62c-1.1-1.67-1.64-3.85-1.64-6.54v-20.32h4.96v19.02c0,3.14.68,5.3,2.04,6.48s3.28,1.77,5.76,1.77c1.15,0,2.29-.2,3.41-.59s2.12-1.01,3-1.86c.89-.85,1.59-1.93,2.1-3.25.52-1.32.77-2.89.77-4.71v-16.85h4.96v30.97h-4.34l-.31-4.71c-1.07,1.86-2.53,3.21-4.37,4.06-1.84.85-3.99,1.27-6.47,1.27h0Z"/>
      <path d="M143.36,66.72v37.35c0,1.57.29,2.65.87,3.25.58.6,1.51.9,2.79.9.83,0,1.51-.06,2.04-.18.53-.12,1.26-.35,2.17-.68l-.8,4.34c-.66.29-1.39.5-2.17.65-.78.14-1.59.22-2.42.22-2.52,0-4.39-.68-5.61-2.04-1.22-1.36-1.83-3.45-1.83-6.26v-37.54h4.96Z"/>
      <path d="M173.03,80.96v4.27h-22.42v-4.27h22.42ZM161.76,72.17v31.22c0,1.53.43,2.66,1.3,3.41s1.98,1.12,3.34,1.12c1.2,0,2.23-.21,3.1-.62.87-.41,1.65-.97,2.35-1.67l1.74,4.15c-.95.87-2.07,1.55-3.37,2.04s-2.8.74-4.49.74c-1.57,0-3.04-.28-4.4-.83s-2.45-1.45-3.25-2.66c-.8-1.22-1.23-2.82-1.27-4.8v-30.73l4.96-1.36h0Z"/>
      <path d="M196.57,91.93c0-2.31-.62-4.1-1.86-5.36-1.24-1.26-2.99-1.89-5.27-1.89-2.15,0-3.96.47-5.45,1.39-1.49.93-2.58,2.43-3.28,4.49l-4.02-2.48c.83-2.31,2.35-4.18,4.58-5.61s5-2.14,8.3-2.14c2.23,0,4.25.38,6.07,1.15,1.82.77,3.25,1.92,4.31,3.47s1.58,3.54,1.58,5.98v14.99c0,1.49.78,2.23,2.35,2.23.78,0,1.55-.1,2.29-.31l-.25,3.9c-.83.41-1.9.62-3.22.62-1.2,0-2.27-.23-3.22-.68s-1.69-1.15-2.23-2.07c-.54-.93-.8-2.1-.8-3.5v-.62l1.24.18c-.5,1.61-1.34,2.92-2.54,3.93s-2.54,1.75-4.02,2.23c-1.49.47-2.95.71-4.4.71-1.82,0-3.51-.31-5.08-.93-1.57-.62-2.82-1.56-3.75-2.82-.93-1.26-1.39-2.82-1.39-4.68,0-2.31.77-4.22,2.32-5.73,1.55-1.51,3.71-2.53,6.47-3.07l12.27-2.42v4.09l-9.97,2.04c-2.02.41-3.53.99-4.52,1.74-.99.74-1.49,1.78-1.49,3.1s.5,2.32,1.52,3.13,2.45,1.21,4.31,1.21c1.2,0,2.34-.15,3.44-.47,1.09-.31,2.07-.78,2.94-1.42.87-.64,1.55-1.45,2.04-2.42s.74-2.12.74-3.44v-8.55h-.01Z"/>
      <path d="M223.7,112.56c-2.56,0-4.91-.64-7.06-1.92-2.15-1.28-3.86-3.13-5.14-5.54-1.28-2.42-1.92-5.3-1.92-8.64s.68-6.34,2.04-8.73c1.36-2.39,3.16-4.22,5.39-5.48,2.23-1.26,4.62-1.89,7.19-1.89s4.78.66,6.66,1.98c1.88,1.32,3.13,3.08,3.75,5.26l-.62.43v-21.31h4.96v45.22h-4.34l-.43-7.49.68-.37c-.29,1.82-.98,3.36-2.07,4.62s-2.44,2.22-4.02,2.88-3.27.99-5.05.99h0ZM224.2,108.22c1.98,0,3.71-.5,5.17-1.49,1.47-.99,2.6-2.4,3.41-4.24.8-1.84,1.21-3.99,1.21-6.47s-.4-4.38-1.21-6.07-1.92-2.99-3.34-3.9c-1.42-.91-3.09-1.36-4.99-1.36-3.14,0-5.58,1.07-7.31,3.22s-2.6,5-2.6,8.55.85,6.4,2.54,8.55c1.69,2.15,4.07,3.22,7.13,3.22h0Z"/>
      <path d="M279.82,112.56c-2.56,0-4.91-.64-7.06-1.92-2.15-1.28-3.86-3.13-5.14-5.54-1.28-2.42-1.92-5.3-1.92-8.64s.68-6.34,2.04-8.73c1.36-2.39,3.16-4.22,5.39-5.48,2.23-1.26,4.62-1.89,7.19-1.89s4.78.66,6.66,1.98c1.88,1.32,3.13,3.08,3.75,5.26l-.62.43v-21.31h4.96v45.22h-4.34l-.43-7.49.68-.37c-.29,1.82-.98,3.36-2.07,4.62s-2.44,2.22-4.02,2.88-3.27.99-5.05.99h0ZM280.32,108.22c1.98,0,3.71-.5,5.17-1.49,1.47-.99,2.6-2.4,3.41-4.24.8-1.84,1.21-3.99,1.21-6.47s-.4-4.38-1.21-6.07-1.92-2.99-3.34-3.9c-1.42-.91-3.09-1.36-4.99-1.36-3.14,0-5.58,1.07-7.31,3.22s-2.6,5-2.6,8.55.85,6.4,2.54,8.55c1.69,2.15,4.07,3.22,7.13,3.22h0Z"/>
      <path d="M317.61,112.56c-2.93,0-5.54-.64-7.84-1.92s-4.08-3.13-5.36-5.54-1.92-5.3-1.92-8.64.64-6.23,1.92-8.64,3.04-4.26,5.26-5.54c2.23-1.28,4.77-1.92,7.62-1.92s5.36.62,7.4,1.86,3.6,2.92,4.68,5.05c1.07,2.13,1.61,4.51,1.61,7.16,0,.7-.02,1.34-.06,1.92-.04.58-.1,1.1-.18,1.55h-25.02v-4.4h22.86l-2.54.5c0-2.97-.82-5.26-2.45-6.88s-3.77-2.42-6.41-2.42c-2.02,0-3.77.47-5.23,1.39-1.47.93-2.6,2.27-3.41,4.02-.8,1.75-1.21,3.87-1.21,6.35s.41,4.54,1.24,6.32c.83,1.78,1.99,3.13,3.5,4.06,1.51.93,3.31,1.39,5.42,1.39,2.27,0,4.12-.43,5.54-1.3,1.42-.87,2.57-2.04,3.44-3.53l3.9,2.29c-.78,1.4-1.79,2.62-3,3.66s-2.64,1.83-4.27,2.39-3.46.83-5.48.83h0Z"/>
      <path d="M388.72,111.94h-5.27l-4.34-11.33h-18.52l-4.34,11.33h-5.2l15.92-40.88h5.88l15.86,40.88ZM362.4,95.95h14.93l-7.49-20.13-7.43,20.13h0Z"/>
      <path d="M394.17,111.94v-30.97h4.03l.68,5.08c.87-1.9,2.14-3.32,3.81-4.27,1.67-.95,3.71-1.42,6.1-1.42.53,0,1.12.04,1.77.12.64.08,1.19.25,1.64.5l-.87,4.52c-.45-.17-.95-.29-1.49-.37-.54-.08-1.3-.12-2.29-.12-1.28,0-2.57.37-3.87,1.12s-2.39,1.87-3.25,3.38-1.3,3.42-1.3,5.73v16.73h-4.96Z"/>
      <path d="M438.9,124.94v-21.5l.87.62c-.29,1.82-.98,3.36-2.07,4.62s-2.44,2.22-4.02,2.88-3.27.99-5.05.99c-2.56,0-4.91-.64-7.06-1.92s-3.86-3.13-5.14-5.54c-1.28-2.42-1.92-5.3-1.92-8.64s.68-6.34,2.04-8.73c1.36-2.39,3.16-4.22,5.39-5.48,2.23-1.26,4.62-1.89,7.19-1.89,1.74,0,3.34.32,4.83.96,1.49.64,2.76,1.55,3.81,2.72,1.05,1.18,1.74,2.57,2.07,4.18h-.74l.43-7.25h4.34v43.98h-4.96ZM429.11,108.22c1.94,0,3.64-.48,5.11-1.45s2.61-2.35,3.44-4.15c.83-1.8,1.24-3.91,1.24-6.35s-.4-4.57-1.21-6.29c-.8-1.71-1.93-3.02-3.37-3.93-1.45-.91-3.14-1.36-5.08-1.36-3.05,0-5.45,1.07-7.19,3.22s-2.6,5-2.6,8.55.85,6.4,2.54,8.55,4.07,3.22,7.13,3.22h0Z"/>
      <path d="M464.66,112.56c-1.98,0-3.85-.37-5.61-1.12-1.75-.74-3.18-1.95-4.27-3.62-1.1-1.67-1.64-3.85-1.64-6.54v-20.32h4.96v19.02c0,3.14.68,5.3,2.04,6.48s3.28,1.77,5.76,1.77c1.15,0,2.29-.2,3.41-.59s2.12-1.01,3-1.86c.89-.85,1.59-1.93,2.1-3.25.52-1.32.77-2.89.77-4.71v-16.85h4.96v30.97h-4.34l-.31-4.71c-1.07,1.86-2.53,3.21-4.37,4.06-1.84.85-3.99,1.27-6.47,1.27h0Z"/>
      <path d="M492.23,75.01c-1.12,0-2.01-.34-2.69-1.02s-1.02-1.58-1.02-2.69.34-2.01,1.02-2.69,1.58-1.02,2.69-1.02,2.01.34,2.69,1.02,1.02,1.58,1.02,2.69-.34,2.01-1.02,2.69-1.58,1.02-2.69,1.02ZM494.71,80.96v30.97h-4.96v-30.97h4.96Z"/>
      <path d="M522.89,80.96v4.27h-22.42v-4.27h22.42ZM511.62,72.17v31.22c0,1.53.43,2.66,1.3,3.41s1.98,1.12,3.34,1.12c1.2,0,2.23-.21,3.1-.62.87-.41,1.65-.97,2.35-1.67l1.74,4.15c-.95.87-2.07,1.55-3.37,2.04s-2.8.74-4.49.74c-1.57,0-3.04-.28-4.4-.83s-2.45-1.45-3.25-2.66c-.8-1.22-1.23-2.82-1.27-4.8v-30.73l4.96-1.36h0Z"/>
      <path d="M541.29,112.56c-2.93,0-5.54-.64-7.84-1.92s-4.08-3.13-5.36-5.54c-1.28-2.42-1.92-5.3-1.92-8.64s.64-6.23,1.92-8.64,3.04-4.26,5.26-5.54c2.23-1.28,4.77-1.92,7.62-1.92s5.36.62,7.4,1.86c2.04,1.24,3.6,2.92,4.68,5.05,1.07,2.13,1.61,4.51,1.61,7.16,0,.7-.02,1.34-.06,1.92-.04.58-.1,1.1-.18,1.55h-25.02v-4.4h22.86l-2.54.5c0-2.97-.82-5.26-2.45-6.88s-3.77-2.42-6.41-2.42c-2.02,0-3.77.47-5.23,1.39-1.47.93-2.6,2.27-3.41,4.02-.8,1.75-1.21,3.87-1.21,6.35s.41,4.54,1.24,6.32c.83,1.78,1.99,3.13,3.5,4.06,1.51.93,3.31,1.39,5.42,1.39,2.27,0,4.12-.43,5.54-1.3,1.42-.87,2.57-2.04,3.44-3.53l3.9,2.29c-.78,1.4-1.79,2.62-3,3.66s-2.64,1.83-4.27,2.39-3.46.83-5.48.83h0Z"/>
      <path d="M574.99,80.34c2.15,0,4.04.33,5.67.99s3.04,1.61,4.24,2.85c1.2,1.24,2.17,2.7,2.91,4.4l-4.71,2.23c-.66-1.98-1.66-3.5-3-4.55-1.34-1.05-3.09-1.58-5.23-1.58s-3.84.47-5.33,1.39-2.62,2.27-3.41,4.02c-.78,1.75-1.18,3.87-1.18,6.35s.39,4.54,1.18,6.32c.78,1.78,1.92,3.13,3.41,4.06s3.26,1.39,5.33,1.39c1.61,0,3-.25,4.18-.74,1.18-.5,2.15-1.22,2.91-2.17.77-.95,1.29-2.1,1.58-3.47l4.58,1.61c-.7,1.9-1.66,3.53-2.88,4.89s-2.69,2.4-4.4,3.13c-1.72.72-3.67,1.09-5.85,1.09-2.89,0-5.47-.64-7.74-1.92s-4.05-3.13-5.33-5.54-1.92-5.3-1.92-8.64.64-6.23,1.92-8.64,3.05-4.26,5.33-5.54c2.27-1.28,4.85-1.92,7.74-1.92h0Z"/>
      <path d="M613.52,80.96v4.27h-22.42v-4.27h22.42ZM602.24,72.17v31.22c0,1.53.43,2.66,1.3,3.41s1.98,1.12,3.34,1.12c1.2,0,2.23-.21,3.1-.62.87-.41,1.65-.97,2.35-1.67l1.74,4.15c-.95.87-2.07,1.55-3.37,2.04s-2.8.74-4.49.74c-1.57,0-3.04-.28-4.4-.83s-2.45-1.45-3.25-2.66c-.8-1.22-1.23-2.82-1.27-4.8v-30.73l4.96-1.36h0Z"/>
      <path d="M630.18,112.56c-1.98,0-3.85-.37-5.61-1.12-1.75-.74-3.18-1.95-4.27-3.62-1.1-1.67-1.64-3.85-1.64-6.54v-20.32h4.96v19.02c0,3.14.68,5.3,2.04,6.48s3.28,1.77,5.76,1.77c1.15,0,2.29-.2,3.41-.59s2.12-1.01,3-1.86c.89-.85,1.59-1.93,2.1-3.25.52-1.32.77-2.89.77-4.71v-16.85h4.96v30.97h-4.34l-.31-4.71c-1.07,1.86-2.53,3.21-4.37,4.06-1.84.85-3.99,1.27-6.47,1.27h0Z"/>
      <path d="M655.27,111.94v-30.97h4.03l.68,5.08c.87-1.9,2.14-3.32,3.81-4.27,1.67-.95,3.71-1.42,6.1-1.42.53,0,1.12.04,1.77.12.64.08,1.19.25,1.64.5l-.87,4.52c-.45-.17-.95-.29-1.49-.37-.54-.08-1.3-.12-2.29-.12-1.28,0-2.57.37-3.87,1.12s-2.39,1.87-3.25,3.38-1.3,3.42-1.3,5.73v16.73h-4.96Z"/>
      <path d="M695.84,91.93c0-2.31-.62-4.1-1.86-5.36-1.24-1.26-2.99-1.89-5.27-1.89-2.15,0-3.96.47-5.45,1.39-1.49.93-2.58,2.43-3.28,4.49l-4.02-2.48c.83-2.31,2.35-4.18,4.58-5.61s5-2.14,8.3-2.14c2.23,0,4.25.38,6.07,1.15,1.82.77,3.25,1.92,4.31,3.47s1.58,3.54,1.58,5.98v14.99c0,1.49.78,2.23,2.35,2.23.78,0,1.55-.1,2.29-.31l-.25,3.9c-.83.41-1.9.62-3.22.62-1.2,0-2.27-.23-3.22-.68s-1.69-1.15-2.23-2.07c-.54-.93-.8-2.1-.8-3.5v-.62l1.24.18c-.5,1.61-1.34,2.92-2.54,3.93s-2.54,1.75-4.02,2.23c-1.49.47-2.95.71-4.4.71-1.82,0-3.51-.31-5.08-.93-1.57-.62-2.82-1.56-3.75-2.82-.93-1.26-1.39-2.82-1.39-4.68,0-2.31.77-4.22,2.32-5.73s3.71-2.53,6.47-3.07l12.27-2.42v4.09l-9.97,2.04c-2.02.41-3.53.99-4.52,1.74-.99.74-1.49,1.78-1.49,3.1s.5,2.32,1.52,3.13c1.01.8,2.45,1.21,4.31,1.21,1.2,0,2.34-.15,3.44-.47,1.09-.31,2.07-.78,2.94-1.42.87-.64,1.55-1.45,2.04-2.42s.74-2.12.74-3.44v-8.55h-.01Z"/>
      <path d="M713.37,104.5c.99,0,1.83.26,2.51.77s1.21,1.22,1.58,2.1c.37.89.56,1.93.56,3.13,0,1.36-.24,2.7-.71,4.02-.48,1.32-1.21,2.54-2.2,3.66s-2.27,2.04-3.84,2.79l-2.6-2.42c1.12-.37,2.1-.89,2.94-1.55.85-.66,1.54-1.4,2.07-2.23s.89-1.67,1.05-2.54l-.25-.12c-.17.12-.37.23-.62.31s-.62.12-1.12.12-1-.15-1.52-.43-.96-.71-1.33-1.27c-.37-.56-.56-1.29-.56-2.2,0-.74.18-1.44.56-2.07s.86-1.15,1.45-1.52c.6-.37,1.27-.56,2.01-.56h0Z"/>
      <path d="M37.66,177.34h-5.27l-4.34-11.33H9.54l-4.34,11.33H0l15.92-40.88h5.88l15.86,40.88h0ZM11.34,161.36h14.93l-7.49-20.13s-7.43,20.13-7.43,20.13Z"/>
      <path d="M43.12,177.34v-30.97h4.03l.68,5.08c.87-1.9,2.14-3.32,3.81-4.27,1.67-.95,3.71-1.42,6.1-1.42.53,0,1.12.04,1.77.12.64.08,1.19.25,1.64.5l-.87,4.52c-.45-.17-.95-.29-1.49-.37-.54-.08-1.3-.12-2.29-.12-1.28,0-2.57.37-3.87,1.12s-2.39,1.87-3.25,3.37c-.87,1.51-1.3,3.42-1.3,5.73v16.73h-4.96Z"/>
      <path d="M83.19,146.37v4.27h-22.42v-4.27h22.42ZM71.92,137.58v31.22c0,1.53.43,2.66,1.3,3.41s1.98,1.12,3.34,1.12c1.2,0,2.23-.21,3.1-.62s1.65-.97,2.35-1.67l1.74,4.15c-.95.87-2.07,1.55-3.37,2.04s-2.8.74-4.49.74c-1.57,0-3.04-.28-4.4-.83s-2.45-1.45-3.25-2.66c-.8-1.22-1.23-2.82-1.27-4.8v-30.73l4.96-1.36h0Z"/>
      <path d="M101.59,177.96c-2.93,0-5.54-.64-7.84-1.92s-4.08-3.13-5.36-5.54c-1.28-2.42-1.92-5.3-1.92-8.64s.64-6.23,1.92-8.64,3.04-4.26,5.26-5.54c2.23-1.28,4.77-1.92,7.62-1.92s5.36.62,7.4,1.86,3.6,2.92,4.68,5.05c1.07,2.13,1.61,4.51,1.61,7.15,0,.7-.02,1.34-.06,1.92-.04.58-.1,1.1-.18,1.55h-25.02v-4.4h22.86l-2.54.5c0-2.97-.82-5.26-2.45-6.88s-3.77-2.42-6.41-2.42c-2.02,0-3.77.47-5.23,1.39-1.47.93-2.6,2.27-3.41,4.02-.8,1.75-1.21,3.87-1.21,6.35s.41,4.54,1.24,6.32c.83,1.78,1.99,3.13,3.5,4.06s3.31,1.39,5.42,1.39c2.27,0,4.12-.43,5.54-1.3s2.57-2.04,3.44-3.53l3.9,2.29c-.78,1.4-1.79,2.62-3,3.66-1.22,1.03-2.64,1.83-4.27,2.39s-3.46.83-5.48.83h0Z"/>
      <path d="M165.58,146.37l-14.56,36.17c-.78,2.02-1.64,3.62-2.57,4.8-.93,1.18-1.96,2.02-3.1,2.54-1.14.52-2.45.77-3.93.77-1.4,0-2.69-.2-3.87-.59s-2.22-.92-3.13-1.58l1.36-4.34c.83.74,1.7,1.29,2.63,1.64.93.35,1.85.53,2.75.53,1.07,0,2.09-.33,3.04-.99.95-.66,1.82-2,2.6-4.02l1.61-4.02-3.1-7.37-9.85-23.54h5.64l7.74,20.2,1.92,5.51,2.23-6.13,7.25-19.58h5.33,0Z"/>
      <path d="M201.94,136.46c6.4,0,11.43,1.77,15.08,5.3,3.66,3.53,5.48,8.58,5.48,15.14s-1.83,11.62-5.48,15.14-8.68,5.3-15.08,5.3h-13.19v-40.88h13.19ZM202.43,172.7c4.67,0,8.31-1.39,10.93-4.18,2.62-2.79,3.93-6.66,3.93-11.62s-1.31-8.83-3.93-11.62c-2.62-2.79-6.27-4.18-10.93-4.18h-8.73v31.59h8.73Z"/>
      <path d="M232.72,140.42c-1.12,0-2.01-.34-2.69-1.02s-1.02-1.58-1.02-2.69.34-2.01,1.02-2.69,1.58-1.02,2.69-1.02,2.01.34,2.69,1.02,1.02,1.58,1.02,2.69-.34,2.01-1.02,2.69-1.58,1.02-2.69,1.02ZM235.2,146.37v30.97h-4.96v-30.97h4.96Z"/>
      <path d="M255.96,177.96c-3.02,0-5.79-.64-8.33-1.92-2.54-1.28-4.49-3.1-5.85-5.45l4.21-3.04c.91,1.9,2.24,3.39,3.99,4.46,1.75,1.07,3.87,1.61,6.35,1.61,2.19,0,3.9-.42,5.14-1.27s1.86-1.95,1.86-3.31c0-.87-.28-1.66-.83-2.39s-1.62-1.25-3.19-1.58l-7.43-1.55c-3.02-.62-5.17-1.65-6.47-3.1-1.3-1.45-1.95-3.24-1.95-5.39,0-1.69.48-3.24,1.45-4.65.97-1.4,2.35-2.53,4.15-3.37,1.8-.85,3.91-1.27,6.35-1.27,3.05,0,5.64.6,7.74,1.8,2.1,1.2,3.67,2.89,4.71,5.08l-4.15,2.72c-.7-1.82-1.84-3.15-3.41-3.99-1.57-.85-3.2-1.27-4.89-1.27-1.49,0-2.75.21-3.81.62-1.05.41-1.86.98-2.42,1.7s-.83,1.54-.83,2.45.31,1.75.93,2.51c.62.77,1.77,1.31,3.47,1.64l7.74,1.61c2.89.58,4.91,1.53,6.07,2.85,1.15,1.32,1.74,2.93,1.74,4.83s-.52,3.64-1.55,5.11c-1.03,1.47-2.48,2.59-4.34,3.37-1.86.78-4.01,1.18-6.44,1.18h0Z"/>
      <path d="M288.48,177.96c-2.93,0-5.54-.64-7.84-1.92s-4.08-3.13-5.36-5.54c-1.28-2.42-1.92-5.3-1.92-8.64s.64-6.23,1.92-8.64,3.04-4.26,5.26-5.54c2.23-1.28,4.77-1.92,7.62-1.92s5.36.62,7.4,1.86,3.6,2.92,4.68,5.05c1.07,2.13,1.61,4.51,1.61,7.15,0,.7-.02,1.34-.06,1.92-.04.58-.1,1.1-.18,1.55h-25.02v-4.4h22.86l-2.54.5c0-2.97-.82-5.26-2.45-6.88s-3.77-2.42-6.41-2.42c-2.02,0-3.77.47-5.23,1.39-1.47.93-2.6,2.27-3.41,4.02-.8,1.75-1.21,3.87-1.21,6.35s.41,4.54,1.24,6.32c.83,1.78,1.99,3.13,3.5,4.06s3.31,1.39,5.42,1.39c2.27,0,4.12-.43,5.54-1.3,1.42-.87,2.57-2.04,3.44-3.53l3.9,2.29c-.78,1.4-1.79,2.62-3,3.66s-2.64,1.83-4.27,2.39-3.46.83-5.48.83h0Z"/>
      <path d="M309.35,177.34v-30.97h4.34l.43,6.94-.8-.68c.66-1.65,1.55-2.98,2.66-3.99,1.12-1.01,2.4-1.74,3.87-2.2,1.47-.45,2.98-.68,4.55-.68,2.23,0,4.25.42,6.07,1.27,1.82.85,3.27,2.14,4.37,3.87,1.09,1.74,1.64,3.94,1.64,6.63v19.82h-4.96v-18.09c0-3.43-.73-5.81-2.2-7.16-1.47-1.34-3.27-2.01-5.42-2.01-1.49,0-2.97.35-4.46,1.05-1.49.7-2.72,1.84-3.69,3.41-.97,1.57-1.45,3.67-1.45,6.32v16.48h-4.96,0ZM334.44,132.93c-.12,1.82-.47,3.34-1.02,4.58-.56,1.24-1.32,2.17-2.29,2.79s-2.18.93-3.62.93c-1.16,0-2.14-.22-2.94-.65-.8-.43-1.5-.92-2.07-1.45-.58-.53-1.15-1.02-1.7-1.45s-1.17-.65-1.83-.65c-.91,0-1.59.38-2.04,1.15-.45.77-.78,1.81-.99,3.13h-3.9c.21-2.72.88-4.79,2.01-6.19,1.14-1.4,2.8-2.1,4.99-2.1,1.12,0,2.07.22,2.88.65.8.43,1.51.92,2.1,1.45.6.54,1.17,1.02,1.7,1.45.53.43,1.12.65,1.74.65.95,0,1.65-.38,2.1-1.15.45-.76.78-1.8.99-3.13h3.91Z"/>
      <path d="M358.6,145.75c2.93,0,5.52.64,7.78,1.92,2.25,1.28,4.02,3.13,5.3,5.54s1.92,5.3,1.92,8.64-.64,6.23-1.92,8.64c-1.28,2.42-3.05,4.26-5.3,5.54-2.25,1.28-4.84,1.92-7.78,1.92s-5.47-.64-7.74-1.92-4.05-3.13-5.33-5.54c-1.28-2.42-1.92-5.3-1.92-8.64s.64-6.23,1.92-8.64,3.05-4.26,5.33-5.54c2.27-1.28,4.85-1.92,7.74-1.92h0ZM358.6,150.03c-2.1,0-3.9.48-5.39,1.42-1.49.95-2.63,2.3-3.44,4.06-.8,1.75-1.21,3.87-1.21,6.35s.4,4.54,1.21,6.32c.8,1.78,1.95,3.14,3.44,4.09,1.49.95,3.28,1.42,5.39,1.42s3.9-.47,5.39-1.42c1.49-.95,2.63-2.31,3.44-4.09.8-1.77,1.21-3.88,1.21-6.32s-.4-4.59-1.21-6.35c-.8-1.75-1.95-3.11-3.44-4.06-1.49-.95-3.28-1.42-5.39-1.42h0Z"/>
    </g>
  </g>
</svg>