<?xml version="1.0" encoding="UTF-8"?>
<svg id="Layer_1" data-name="Layer 1" xmlns="http://www.w3.org/2000/svg" viewBox="0 0 898.85 312">
  <g>
    <polygon points="82.07 91.43 82.07 197.66 94.95 197.66 94.95 149.85 142.91 149.85 142.91 137.78 94.95 137.78 94.95 103.5 156.43 103.5 156.43 91.43 82.07 91.43"/>
    <path d="M264.14,156.13h38.79l-19.48-52.31-19.31,52.31ZM332.54,197.66h-13.68l-11.27-29.45h-48.12l-11.27,29.45h-13.52l41.36-106.23h15.29l41.2,106.23Z"/>
    <path d="M372.98,156.13h38.79l-19.48-52.31-19.31,52.31ZM441.38,197.66h-13.68l-11.27-29.45h-48.12l-11.27,29.45h-13.52l41.36-106.23h15.29l41.2,106.23Z"/>
    <path d="M490.27,185.59c12.12,0,21.59-3.62,28.41-10.86,6.81-7.24,10.22-17.3,10.22-30.18s-3.41-22.94-10.22-30.18c-6.82-7.24-16.28-10.86-28.41-10.86h-22.69v82.09h22.69ZM488.98,91.43c16.63,0,29.69,4.59,39.19,13.76,9.5,9.17,14.24,22.29,14.24,39.35s-4.75,30.18-14.24,39.35c-9.5,9.17-22.56,13.76-39.19,13.76h-34.28v-106.23h34.28Z"/>
    <path d="M188.68,117.01v9.86h-24.16v10.28h24.66v-9.86h22.05c-.57,7.85-1.26,17.51-1.26,18.38v3.08l-29.29,5.77c-7.19,1.4-12.79,4.05-16.82,7.97-4.02,3.92-6.04,8.88-6.04,14.89,0,4.83,1.21,8.88,3.62,12.15,2.42,3.27,5.66,5.71,9.74,7.32,4.08,1.61,8.47,2.42,13.2,2.42,3.75,0,7.56-.62,11.43-1.85,3.86-1.23,7.35-3.16,10.46-5.79,1.5-1.26,3.85-4.34,3.85-4.34,0,0,.21-.02.58-.07l1.27,10.25h10.09l.13-80.46h-33.52ZM209.97,167.88c0,3.44-.64,6.41-1.93,8.93-1.29,2.52-3.06,4.62-5.31,6.28-2.25,1.67-4.8,2.9-7.65,3.7-2.84.8-5.82,1.21-8.93,1.21-4.83,0-8.56-1.04-11.19-3.14-2.63-2.09-3.94-4.8-3.94-8.13s1.29-6.12,3.86-8.05c2.57-1.93,6.49-3.43,11.75-4.51l23.34-4.78v8.48Z"/>
  </g>
  <g>
    <path d="M640.62,115.84h-21.09v39.66c0,10.37-3.3,26.9-18.56,26.9-13.53,0-13.69-13.38-13.69-23.29v-43.27h-21.07v51.13c0,18.26,8.33,31.8,27.53,31.8,11.01,0,20.14-5.04,26.58-12.91h.32v11.01h19.98v-81.04Z"/>
    <path d="M670.38,156.12c0-10.85,3.77-25.8,17.45-25.8s18.89,14.48,18.89,25.8-4.57,26.28-18.57,26.28-17.77-15.11-17.77-26.28M707.5,196.88h20.46l-.07-114.79h-21.09l.07,43.2h-.31c-6.3-7.7-13.69-11.32-24.23-11.32-24.86,0-33.98,19.82-33.98,42.16s9.13,42.65,33.98,42.65c9.91,0,18.57-3.15,24.85-11.03h.31v9.13Z"/>
    <path d="M737.74,229.91h21.07v-42.32h.32c7.4,8.97,14.79,11.18,23.76,11.18,25.33,0,34.45-20.46,34.45-42.65s-9.12-42.16-33.98-42.16c-12.43,0-20.45,5.51-25.17,13.37h-.31v-11.49h-20.14v114.07ZM777.85,130.32c13.7,0,17.46,14.95,17.46,25.8s-3.93,26.28-17.76,26.28-18.58-14.79-18.58-26.28,5.35-25.8,18.88-25.8"/>
  </g>
</svg>