<?xml version="1.0" encoding="UTF-8"?>
<svg id="Capa_2" data-name="Capa 2" xmlns="http://www.w3.org/2000/svg" viewBox="0 0 786.11 258.95">
  <g id="Capa_1-2" data-name="Capa 1">
    <g>
      <path d="M103.36,190.48l-7.74-7.14v-101.09s7.21-7.49,7.21-7.49h94.94s.05-74.59.05-74.59l14.37-.13v183.24s-6.92,7.13-6.92,7.13l-101.91.06ZM197.8,89.21h-87.73v86.81h87.73v-86.81Z"/>
      <polygon points="212.02 224.49 212.18 238.98 6.98 238.98 0 231.55 0 .24 14.44 .06 14.45 224.48 212.02 224.49"/>
      <rect x="48.6" y="38.44" width="14.44" height="152"/>
      <path d="M384.53,258.95l.06-7.73,25.38-.06-.17-23.72c-5.08,8.49-12.34,12.76-21.39,11.46-8.14-.51-14.54-5.61-17.41-13.3-3.04-8.13-2.98-17.2-.1-25.41s9.78-12.86,18.07-13.55c9.14-.76,16.05,3.06,20.73,11.98l.32-12.05,8.3.18-.08,63.18c0,5.33-4.19,8.94-8.96,8.95l-24.76.05ZM406.85,224.29c4.25-7.43,3.74-16.73-.35-23.46-3.83-6.31-11.25-7.75-18.14-5.97-12.79,3.31-14.95,23.39-7.02,32.22,6.66,7.42,20.26,6.4,25.51-2.79Z"/>
      <path d="M412.29,32.4c3.18,8.11,3.29,16.77.82,24.69-2.74,8.8-9.94,14.21-18.33,14.87-9.17.71-15.99-3.11-21.06-11.81l-1.58,10.54-7.06-.22V.28s8.53-.14,8.53-.14l.12,31.63c3.85-8.04,10.32-12.44,19.15-12.26s16.1,4.36,19.42,12.91ZM403.73,57.78c4.21-7.15,4.21-16.36.11-23.38-5.22-8.93-18.57-10-25.46-2.52-4.71,5.12-5.24,12.4-4.21,18.82,1.12,6.97,6.18,12.27,12.1,13.56,6.74,1.47,13.62.04,17.46-6.48Z"/>
      <path d="M331.56,227.15c-4.69,8.8-11.76,12.41-20.57,11.94s-15.67-5.81-18.6-14.53c-2.52-7.5-2.44-15.68-.08-23.21,2.86-9.11,10.49-14.54,19.9-14.78,8.88-.23,15.18,3.99,19.37,12.18l.22-31.57,8.27.13v70.13s-6.78.35-6.78.35l-1.73-10.66ZM327.74,225.71c5.61-7.92,5.29-19.11-.52-26.34s-18.31-7.12-24.19.08c-6.33,7.75-6.23,20.12.32,27.7,6.12,7.08,18.81,6.43,24.38-1.44Z"/>
      <path d="M531.75,154.35l-1.67-9.45c-4.23,7.27-10.16,10.68-18.3,10.56-6.94-.1-13.27-3.42-16.45-10.09-4.92-10.32-4.89-23.13.39-33.35,3.57-6.91,10.51-9.6,17.53-9.41s12.86,3.84,16.72,10.46l.25-10,8.46.08v50.83s-6.93.37-6.93.37ZM526.39,143.21c5.45-7.85,4.72-19,.97-26.62-2.6-5.27-8.02-6.54-12.8-6.38s-9.46,2.04-11.81,6.86c-3.81,7.81-4.12,18.26,1.11,25.82,4.75,6.88,17.41,7.7,22.54.31Z"/>
      <path d="M523.49,237.94l-1.52-9.59c-3.7,6.75-9.49,10.32-17.02,10.65-8.86.39-16.41-4.32-19.25-12.95-3.05-9.25-3.07-19.41.65-28.46,2.98-7.25,9.6-11.09,16.4-11.45,8.11-.42,13.51,2.76,18.68,9.73l.66-9.15,8.22-.04v50.75s-6.82.49-6.82.49ZM519.25,225.05c3.66-8.1,4.06-19.09-1.26-26.49-4.96-6.9-17.58-6.42-22.39.38-5.23,7.39-4.9,17.6-1.41,25.34,2.39,5.29,7.55,7.4,12.43,7.46s10.13-1.17,12.63-6.69Z"/>
      <path d="M347.98,70.82l-1.6-9.48c-3.86,6.91-9.94,10.54-17.85,10.56s-14.84-3.94-17.8-11.51c-3.79-9.7-3.81-20.83.33-30.44,3.12-7.25,9.9-10.76,17.09-10.93,7.72-.18,14.04,3.54,18.18,10.55l.23-10.04,8.2.17v50.79s-6.78.33-6.78.33ZM343.64,58.08c3.76-8.17,4.14-19.1-1.18-26.63-4.93-6.98-17.68-6.46-22.51.52-5.35,7.74-4.83,18.61-.6,26.47,2.57,4.78,7.86,6.24,12.53,6.21,4.21-.03,9.4-1.46,11.75-6.57Z"/>
      <path d="M437.89,137.59l8.23-.08c-1.83,10.9-10.31,17.38-20.93,17.96-7.08.38-14.62-1.04-19.55-6.71-8.6-9.9-9.62-25.14-2.27-36.12,6.21-9.28,18.11-11.8,28.48-8.01,10.11,3.7,15,14.32,14.32,24.92l-39.56.04c-.53,5.13,1.27,10.95,4.54,14.41,4.1,4.36,10.3,5.4,16.07,4.02,5.21-1.24,9.52-3.75,10.69-10.43ZM438.02,125.11c-.9-9.97-7.76-15.62-15.92-15.35s-14.92,6.75-15.19,15.41l31.11-.06Z"/>
      <path d="M728.76,140c-3.18,10.49-12,15.44-22.21,15.6-9.2.14-17.97-3.37-22.17-11.95-3.55-7.26-3.78-15.69-1.98-23.44,2.62-11.28,12.1-17.33,23.32-17.32s19.74,5.14,23.02,15.75c2.06,6.64,2.17,14.23.01,21.36ZM707.24,148.48c5.09-.35,9.2-2.25,11.73-6.39,4.49-7.36,4.47-17.18.66-24.88-2.75-5.56-8.06-7.54-13.89-7.55-7.29-.02-13.34,3.66-15.3,10.98-1.42,5.29-1.52,11.56-.02,16.83,2.15,7.57,8.56,11.58,16.82,11.01Z"/>
      <path d="M348.99,154.15l-.5-31.54c-.11-7.2-5.44-11.84-12.25-12.23-8.73-.5-16.48,5.28-16.64,14.59l-.48,29.1-8.4.18v-50.81s6.91-.42,6.91-.42l1.67,12.16c3.58-8.32,10.1-12.15,18.91-12.2,9.81-.05,17.79,6.45,17.98,16.78l.61,34.31-7.81.06Z"/>
      <path d="M778.35,154.21l-.44-30.9c-.08-5.94-4.13-11.48-9.73-12.5-4.77-.87-9.97-.26-13.68,2.86-2.53,2.13-5.7,7.17-5.76,11.44l-.38,28.67-8.33.34-.02-50.61,6.96-.49,1.53,12.18c3.91-8.62,10.29-12.01,18.72-12.2,10.2-.23,18.22,6.78,18.38,17.51l.5,33.57-7.76.13Z"/>
      <path d="M581,145.93c3.9-2.02,5.6-5.22,6.93-9.19l7.4-.1c-1.77,10.77-10.16,17.76-20.7,18.75-7.65.72-15.55-1.14-21.09-6.62-6.59-6.53-8.05-15.88-6.51-24.78,2.32-13.46,13.64-22.22,27.31-20.96,10.59.98,19.63,8.12,20.86,18.57l-6.62-.14c-1.22-.02-1.66-2.99-2.48-4.48-5.91-8.29-19.35-9.43-26.48-1.64s-7.1,20.15-.46,27.68c5.43,6.15,14.67,6.61,21.84,2.91Z"/>
      <path d="M615.69,142.75c6.3,7.42,17.63,6.92,24.52,1.46,2.34-1.85,3.37-4.39,4.54-7.53l7.32-.05c-1.66,11.57-11.31,18.39-22.41,18.9-7.67.36-14.78-2.1-19.7-7.14-5.48-5.61-7.19-13.17-6.63-21.03,1.02-14.14,11.3-24.79,25.62-24.43,11.22.28,21.03,6.76,23.11,18.57l-7.3-.03c-1.43-3.09-2.44-5.88-4.6-7.53-6.79-5.19-17.25-5.38-23.44.99-6.93,7.12-7.83,19.83-1.04,27.82Z"/>
      <path d="M390.97,147.66l-.03,6.59-12.66-.02c-3.33,0-6.92-3.11-6.94-6.93l-.16-37.93-8.01-.36.06-5.59,7.56-1.39,1.54-11.97,6.72-.06.13,13.09,11.73-.02-.04,6.05-11.74.05-.03,38.36,11.87.11Z"/>
      <path d="M475.6,231.25l.03,6.56-12.87-.03c-3.5,0-6.77-3.19-6.78-7.04l-.12-37.9-7.92-.1v-5.98c1.99-.05,6.23-.42,7.55-1.76,1.02-3.1,1.25-7.24,1.46-11.35l6.84-.25.04,13.24h11.69s-.06,6.08-.06,6.08l-11.64.05v38.28s11.77.22,11.77.22Z"/>
      <rect x="291.34" width="7.97" height="70.74"/>
      <path d="M487.4,111.82l-12.36,1.6c-5.49.71-9.04,7.2-9.09,12.75l-.24,27.95-8.01-.04.02-50.86,7.14-.13,1.13,11.88c3.55-8.78,12.06-13.06,21.42-11.56l-.02,8.4Z"/>
      <rect x="541.4" y="167.1" width="7.95" height="70.71"/>
      <rect x="291.34" y="103.08" width="8.16" height="51.19"/>
      <rect x="430.63" y="186.62" width="8.29" height="51.19"/>
      <rect x="663.21" y="103.1" width="8.24" height="51.18"/>
      <rect x="352.49" y="186.62" width="8.13" height="51.19"/>
      <rect x="48.64" width="14.45" height="21.46"/>
      <circle cx="434.76" cy="173.78" r="5.49"/>
      <circle cx="295.4" cy="90.22" r="5.5"/>
      <circle cx="667.31" cy="90.17" r="5.46"/>
      <circle cx="356.52" cy="173.76" r="5.47"/>
      <path d="M710.67,95.37c-.72.93-1.89,2.05-2.68,2.37s-3.34-.58-3.51-.91l6.33-12.96c2.6-.2,5.22-.08,8.37.4l-8.51,11.1Z"/>
    </g>
  </g>
</svg>