<?xml version="1.0" encoding="UTF-8"?>
<svg id="Capa_2" data-name="Capa 2" xmlns="http://www.w3.org/2000/svg" viewBox="0 0 279.83 283.02">
  <defs>
    <style>
      .cls-1 {
        fill: #d4b2fe;
      }

      .cls-2 {
        fill: #5501a4;
      }

      .cls-3 {
        fill: #9c4bff;
      }
    </style>
  </defs>
  <g id="Capa_1-2" data-name="Capa 1">
    <g>
      <path class="cls-3" d="M275.11,221.65h-63.49c0-20.61-3.81-36.02-12.02-48.5-7.41-11.26-18.07-19.72-29.42-28.7-15.87-12.57-33.9-26.79-44.1-50.28-5.59-12.82-8.17-27.26-7.66-42.83.47-15.36,3.81-32.17,10.2-51.34l60.23,20.06c-7.41,22.22-8.93,38.68-4.53,48.84,3.85,8.85,13.29,16.34,25.23,25.78,13.42,10.58,30.09,23.79,43.13,43.64,15.11,22.98,22.43,50.24,22.43,83.34Z"/>
      <path class="cls-2" d="M63.49,263.98H0c0-23.45,4.23-44.19,12.53-61.71,7.83-16.51,19.51-30.6,34.66-41.86,25.48-18.96,56.29-27.13,86.09-35,27.89-7.41,54.26-14.39,68.73-28.7,5.42-5.38,21.97-21.8,10.24-80.46l62.22-12.49c12.4,62.01,3.3,107.17-27.81,137.98-26.5,26.28-62.43,35.81-97.18,44.99-25.1,6.64-48.8,12.91-64.5,24.59-9.99,7.49-21.5,20.19-21.5,52.65Z"/>
      <rect class="cls-1" x="63.5" y="73.51" width="63.49" height="211.62" transform="translate(-88.55 93.01) rotate(-36.87)"/>
    </g>
  </g>
</svg>